<svg width="3948" height="643" viewBox="0 0 3948 643" fill="none" xmlns="http://www.w3.org/2000/svg">
<path d="M422 135C628.002 135 795 301.998 795 508H49C49 301.998 215.998 135 422 135Z" fill="#FF5757"/>
<path d="M422 135C628.002 135 795 301.998 795 508H49C49 301.998 215.998 135 422 135Z"/>
<path opacity="0.1" d="M334 461C491.401 461 619 430.555 619 393H49C49 430.555 176.599 461 334 461Z" fill="url(#paint0_linear_48_24)"/>
<path d="M1031.52 215.96C1045.6 215.96 1057.01 218.093 1065.76 222.36C1074.51 226.413 1082.51 231.213 1089.76 236.76C1092.53 238.893 1094.67 239.96 1096.16 239.96C1100.21 239.96 1102.88 233.453 1104.16 220.44H1111.52C1111.09 228.547 1110.77 238.36 1110.56 249.88C1110.35 261.187 1110.24 276.333 1110.24 295.32H1102.88C1101.39 285.08 1099.36 275.587 1096.8 266.84C1094.45 258.093 1090.29 250.627 1084.32 244.44C1078.56 237.613 1070.99 232.28 1061.6 228.44C1052.43 224.6 1043.04 222.68 1033.44 222.68C1022.35 222.68 1012.53 225.453 1004 231C995.467 236.333 988.213 244.013 982.24 254.04C976.48 264.067 972 275.907 968.8 289.56C965.813 303 964.32 317.827 964.32 334.04C964.32 372.44 970.187 400.6 981.92 418.52C993.867 436.227 1011.79 445.08 1035.68 445.08C1042.51 445.08 1048.37 444.12 1053.28 442.2C1058.4 440.28 1062.45 438.36 1065.44 436.44C1069.07 433.88 1071.41 431.427 1072.48 429.08C1073.55 426.52 1074.08 423.213 1074.08 419.16V388.12C1074.08 378.947 1073.23 372.227 1071.52 367.96C1070.03 363.48 1066.93 360.493 1062.24 359C1057.55 357.293 1050.72 356.333 1041.76 356.12V349.72C1045.81 349.933 1050.61 350.147 1056.16 350.36C1061.71 350.36 1067.47 350.467 1073.44 350.68C1079.63 350.68 1085.17 350.68 1090.08 350.68C1097.76 350.68 1104.69 350.573 1110.88 350.36C1117.28 350.147 1122.51 349.933 1126.56 349.72V356.12C1122.08 356.333 1118.67 357.08 1116.32 358.36C1114.19 359.64 1112.69 362.2 1111.84 366.04C1111.2 369.88 1110.88 375.747 1110.88 383.64V447H1104.48C1104.27 443.373 1103.41 439.427 1101.92 435.16C1100.64 430.893 1098.61 428.76 1095.84 428.76C1094.35 428.76 1092.75 429.08 1091.04 429.72C1089.55 430.36 1086.88 431.96 1083.04 434.52C1075.57 439.64 1067.79 443.8 1059.68 447C1051.57 449.987 1042.4 451.48 1032.16 451.48C1009.33 451.48 989.813 447 973.6 438.04C957.387 428.867 945.013 415.747 936.48 398.68C928.16 381.4 924 360.92 924 337.24C924 312.493 928.587 291.053 937.76 272.92C947.147 254.787 959.84 240.813 975.84 231C992.053 220.973 1010.61 215.96 1031.52 215.96ZM1232.12 220.44C1237.02 220.653 1243.32 220.867 1251 221.08C1258.89 221.293 1266.68 221.4 1274.36 221.4C1284.6 221.4 1294.3 221.293 1303.48 221.08C1312.86 220.867 1319.48 220.76 1323.32 220.76C1341.45 220.76 1356.49 223.107 1368.44 227.8C1380.6 232.493 1389.56 239.107 1395.32 247.64C1401.29 255.96 1404.28 265.56 1404.28 276.44C1404.28 283.053 1402.89 290.093 1400.12 297.56C1397.56 304.813 1392.97 311.64 1386.36 318.04C1379.74 324.227 1370.78 329.347 1359.48 333.4C1348.17 337.453 1333.77 339.48 1316.28 339.48H1285.56V333.08H1313.08C1327.37 333.08 1338.25 330.733 1345.72 326.04C1353.4 321.133 1358.52 314.733 1361.08 306.84C1363.85 298.733 1365.24 289.773 1365.24 279.96C1365.24 263.107 1361.61 250.093 1354.36 240.92C1347.1 231.533 1334.52 226.84 1316.6 226.84C1307.42 226.84 1301.34 228.653 1298.36 232.28C1295.58 235.907 1294.2 243.267 1294.2 254.36V413.08C1294.2 420.76 1294.84 426.52 1296.12 430.36C1297.4 434.2 1299.85 436.76 1303.48 438.04C1307.1 439.32 1312.44 440.173 1319.48 440.6V447C1314.36 446.573 1307.85 446.36 1299.96 446.36C1292.28 446.147 1284.38 446.04 1276.28 446.04C1267.32 446.04 1258.89 446.147 1251 446.36C1243.32 446.36 1237.02 446.573 1232.12 447V440.6C1239.37 440.173 1244.81 439.32 1248.44 438.04C1252.06 436.76 1254.41 434.2 1255.48 430.36C1256.76 426.52 1257.4 420.76 1257.4 413.08V254.36C1257.4 246.467 1256.76 240.707 1255.48 237.08C1254.41 233.24 1251.96 230.68 1248.12 229.4C1244.49 227.907 1239.16 227.053 1232.12 226.84V220.44ZM1286.2 334.04C1297.08 334.467 1305.82 335 1312.44 335.64C1319.05 336.067 1324.6 336.493 1329.08 336.92C1333.56 337.347 1337.72 337.88 1341.56 338.52C1357.56 340.653 1369.18 344.92 1376.44 351.32C1383.9 357.72 1389.02 367.533 1391.8 380.76L1399.8 413.4C1401.72 422.573 1403.74 429.08 1405.88 432.92C1408.22 436.76 1411.64 438.68 1416.12 438.68C1419.53 438.467 1422.3 437.507 1424.44 435.8C1426.78 433.88 1429.24 431.32 1431.8 428.12L1436.28 431.64C1431.37 438.253 1426.25 443.267 1420.92 446.68C1415.58 449.88 1408.44 451.48 1399.48 451.48C1390.3 451.48 1382.41 449.133 1375.8 444.44C1369.4 439.533 1364.81 430.36 1362.04 416.92L1355.64 384.92C1353.72 375.747 1351.58 367.853 1349.24 361.24C1346.89 354.413 1343.58 349.08 1339.32 345.24C1335.26 341.4 1329.29 339.48 1321.4 339.48H1286.84L1286.2 334.04ZM1623.19 219.16L1701.27 420.12C1704.25 428.013 1707.67 433.347 1711.51 436.12C1715.56 438.893 1719.29 440.387 1722.71 440.6V447C1717.59 446.573 1711.51 446.36 1704.47 446.36C1697.64 446.147 1690.71 446.04 1683.67 446.04C1674.71 446.04 1666.39 446.147 1658.71 446.36C1651.03 446.36 1644.84 446.573 1640.15 447V440.6C1651.03 440.173 1657.85 438.36 1660.63 435.16C1663.61 431.747 1662.97 424.6 1658.71 413.72L1601.11 258.2L1606.23 252.44L1553.11 391.32C1549.27 400.92 1546.92 408.92 1546.07 415.32C1545.43 421.72 1545.96 426.733 1547.67 430.36C1549.59 433.987 1552.79 436.547 1557.27 438.04C1561.75 439.533 1567.29 440.387 1573.91 440.6V447C1567.51 446.573 1561 446.36 1554.39 446.36C1547.99 446.147 1541.91 446.04 1536.15 446.04C1531.03 446.04 1526.44 446.147 1522.39 446.36C1518.55 446.36 1515.03 446.573 1511.83 447V440.6C1516.31 439.533 1520.79 436.867 1525.27 432.6C1529.75 428.333 1534.01 421.08 1538.07 410.84L1612.31 219.16C1614.01 219.16 1615.83 219.16 1617.75 219.16C1619.67 219.16 1621.48 219.16 1623.19 219.16ZM1656.79 354.84V361.24H1561.43L1564.63 354.84H1656.79ZM1973.29 220.44C1972.43 228.973 1971.79 237.293 1971.37 245.4C1971.15 253.507 1971.05 259.693 1971.05 263.96C1971.05 268.867 1971.15 273.56 1971.37 278.04C1971.58 282.52 1971.79 286.36 1972.01 289.56H1964.65C1962.73 273.987 1960.06 261.827 1956.65 253.08C1953.45 244.12 1948.54 237.72 1941.93 233.88C1935.31 229.827 1925.82 227.8 1913.45 227.8H1896.49C1889.66 227.8 1884.43 228.44 1880.81 229.72C1877.39 230.787 1875.05 233.133 1873.77 236.76C1872.49 240.173 1871.85 245.613 1871.85 253.08V412.44C1871.85 420.333 1872.7 426.307 1874.41 430.36C1876.11 434.2 1879.31 436.76 1884.01 438.04C1888.7 439.32 1895.63 440.067 1904.81 440.28V447C1899.05 446.573 1891.58 446.36 1882.41 446.36C1873.23 446.147 1863.74 446.04 1853.93 446.04C1845.39 446.04 1837.18 446.147 1829.29 446.36C1821.61 446.36 1815.1 446.573 1809.77 447V440.6C1817.02 440.173 1822.46 439.32 1826.09 438.04C1829.71 436.76 1832.06 434.2 1833.13 430.36C1834.41 426.52 1835.05 420.76 1835.05 413.08V254.36C1835.05 246.467 1834.41 240.707 1833.13 237.08C1832.06 233.24 1829.61 230.68 1825.77 229.4C1822.14 227.907 1816.81 227.053 1809.77 226.84V220.44C1818.09 220.653 1826.73 220.867 1835.69 221.08C1844.86 221.08 1853.82 221.187 1862.57 221.4C1871.53 221.4 1879.85 221.4 1887.53 221.4C1895.21 221.4 1901.5 221.4 1906.41 221.4C1916.22 221.4 1927.31 221.4 1939.69 221.4C1952.27 221.187 1963.47 220.867 1973.29 220.44ZM1924.33 332.44C1924.33 332.44 1924.33 333.507 1924.33 335.64C1924.33 337.773 1924.33 338.84 1924.33 338.84H1862.25C1862.25 338.84 1862.25 337.773 1862.25 335.64C1862.25 333.507 1862.25 332.44 1862.25 332.44H1924.33ZM1931.05 290.2C1930.19 302.36 1929.77 311.64 1929.77 318.04C1929.98 324.44 1930.09 330.307 1930.09 335.64C1930.09 340.973 1930.19 346.84 1930.41 353.24C1930.62 359.64 1931.15 368.92 1932.01 381.08H1924.65C1923.79 374.04 1922.51 367.32 1920.81 360.92C1919.1 354.307 1916.01 348.973 1911.53 344.92C1907.05 340.867 1900.33 338.84 1891.37 338.84V332.44C1898.19 332.44 1903.53 331.053 1907.37 328.28C1911.42 325.507 1914.51 321.88 1916.65 317.4C1918.78 312.92 1920.27 308.333 1921.13 303.64C1922.19 298.733 1923.05 294.253 1923.69 290.2H1931.05ZM2260.06 220.44C2259.2 229.4 2258.56 238.147 2258.14 246.68C2257.92 255 2257.82 261.4 2257.82 265.88C2257.82 270.787 2257.92 275.48 2258.14 279.96C2258.35 284.44 2258.56 288.28 2258.78 291.48H2251.42C2249.28 275.48 2246.4 262.893 2242.78 253.72C2239.36 244.547 2234.35 237.933 2227.74 233.88C2221.12 229.827 2211.63 227.8 2199.26 227.8H2185.5V410.2C2185.5 418.733 2186.24 425.133 2187.74 429.4C2189.44 433.667 2192.64 436.547 2197.34 438.04C2202.24 439.32 2209.28 440.173 2218.46 440.6V447C2212.48 446.573 2204.8 446.36 2195.42 446.36C2186.03 446.147 2176.43 446.04 2166.62 446.04C2156.38 446.04 2146.67 446.147 2137.5 446.36C2128.54 446.36 2121.28 446.573 2115.74 447V440.6C2124.91 440.173 2131.84 439.32 2136.54 438.04C2141.23 436.547 2144.43 433.667 2146.14 429.4C2147.84 425.133 2148.7 418.733 2148.7 410.2V227.8H2134.62C2122.67 227.8 2113.28 229.827 2106.46 233.88C2099.63 237.933 2094.51 244.547 2091.1 253.72C2087.68 262.893 2084.91 275.48 2082.78 291.48H2075.42C2075.84 288.28 2076.06 284.44 2076.06 279.96C2076.27 275.48 2076.38 270.787 2076.38 265.88C2076.38 261.4 2076.16 255 2075.74 246.68C2075.52 238.147 2074.99 229.4 2074.14 220.44C2083.31 220.653 2093.34 220.867 2104.22 221.08C2115.1 221.293 2126.08 221.4 2137.18 221.4C2148.27 221.4 2158.3 221.4 2167.26 221.4C2176.22 221.4 2186.14 221.4 2197.02 221.4C2207.9 221.4 2218.88 221.293 2229.98 221.08C2241.07 220.867 2251.1 220.653 2260.06 220.44ZM2705.83 220.44C2704.98 229.4 2704.34 238.147 2703.91 246.68C2703.7 255 2703.59 261.4 2703.59 265.88C2703.59 270.787 2703.7 275.48 2703.91 279.96C2704.12 284.44 2704.34 288.28 2704.55 291.48H2697.19C2695.06 275.48 2692.18 262.893 2688.55 253.72C2685.14 244.547 2680.12 237.933 2673.51 233.88C2666.9 229.827 2657.4 227.8 2645.03 227.8H2631.27V410.2C2631.27 418.733 2632.02 425.133 2633.51 429.4C2635.22 433.667 2638.42 436.547 2643.11 438.04C2648.02 439.32 2655.06 440.173 2664.23 440.6V447C2658.26 446.573 2650.58 446.36 2641.19 446.36C2631.8 446.147 2622.2 446.04 2612.39 446.04C2602.15 446.04 2592.44 446.147 2583.27 446.36C2574.31 446.36 2567.06 446.573 2561.51 447V440.6C2570.68 440.173 2577.62 439.32 2582.31 438.04C2587 436.547 2590.2 433.667 2591.91 429.4C2593.62 425.133 2594.47 418.733 2594.47 410.2V227.8H2580.39C2568.44 227.8 2559.06 229.827 2552.23 233.88C2545.4 237.933 2540.28 244.547 2536.87 253.72C2533.46 262.893 2530.68 275.48 2528.55 291.48H2521.19C2521.62 288.28 2521.83 284.44 2521.83 279.96C2522.04 275.48 2522.15 270.787 2522.15 265.88C2522.15 261.4 2521.94 255 2521.51 246.68C2521.3 238.147 2520.76 229.4 2519.91 220.44C2529.08 220.653 2539.11 220.867 2549.99 221.08C2560.87 221.293 2571.86 221.4 2582.95 221.4C2594.04 221.4 2604.07 221.4 2613.03 221.4C2621.99 221.4 2631.91 221.4 2642.79 221.4C2653.67 221.4 2664.66 221.293 2675.75 221.08C2686.84 220.867 2696.87 220.653 2705.83 220.44ZM2919.5 215.96C2940.41 215.96 2958.75 220.547 2974.54 229.72C2990.54 238.893 3002.91 252.12 3011.66 269.4C3020.41 286.467 3024.78 307.267 3024.78 331.8C3024.78 355.693 3020.3 376.6 3011.34 394.52C3002.38 412.44 2989.9 426.413 2973.9 436.44C2957.9 446.467 2939.66 451.48 2919.18 451.48C2898.06 451.48 2879.61 446.893 2863.82 437.72C2848.03 428.547 2835.77 415.32 2827.02 398.04C2818.27 380.76 2813.9 359.96 2813.9 335.64C2813.9 311.747 2818.38 290.84 2827.34 272.92C2836.51 255 2848.99 241.027 2864.78 231C2880.57 220.973 2898.81 215.96 2919.5 215.96ZM2918.22 221.72C2904.99 221.72 2893.47 226.52 2883.66 236.12C2873.85 245.72 2866.27 258.947 2860.94 275.8C2855.61 292.653 2852.94 312.173 2852.94 334.36C2852.94 356.973 2855.93 376.707 2861.9 393.56C2867.87 410.2 2875.98 423.107 2886.22 432.28C2896.46 441.24 2907.87 445.72 2920.46 445.72C2933.69 445.72 2945.1 440.92 2954.7 431.32C2964.51 421.72 2972.09 408.493 2977.42 391.64C2982.97 374.573 2985.74 355.053 2985.74 333.08C2985.74 310.253 2982.65 290.52 2976.46 273.88C2970.49 257.24 2962.38 244.44 2952.14 235.48C2942.11 226.307 2930.81 221.72 2918.22 221.72ZM3224.78 220.44C3264.25 220.44 3293.58 230.04 3312.78 249.24C3331.98 268.227 3341.58 295.533 3341.58 331.16C3341.58 354.413 3336.89 374.787 3327.5 392.28C3318.11 409.56 3304.46 423 3286.54 432.6C3268.83 442.2 3247.29 447 3221.9 447C3218.7 447 3214.33 446.893 3208.78 446.68C3203.45 446.467 3197.9 446.36 3192.14 446.36C3186.38 446.147 3181.15 446.04 3176.46 446.04C3168.35 446.04 3160.35 446.147 3152.46 446.36C3144.78 446.36 3138.49 446.573 3133.58 447V440.6C3140.83 440.173 3146.27 439.32 3149.9 438.04C3153.53 436.76 3155.87 434.2 3156.94 430.36C3158.22 426.52 3158.86 420.76 3158.86 413.08V254.36C3158.86 246.467 3158.22 240.707 3156.94 237.08C3155.87 233.24 3153.42 230.68 3149.58 229.4C3145.95 227.907 3140.62 227.053 3133.58 226.84V220.44C3138.49 220.653 3144.78 220.973 3152.46 221.4C3160.35 221.613 3168.14 221.613 3175.82 221.4C3183.5 221.187 3192.03 220.973 3201.42 220.76C3211.02 220.547 3218.81 220.44 3224.78 220.44ZM3219.34 226.2C3209.53 226.2 3203.13 228.013 3200.14 231.64C3197.15 235.267 3195.66 242.627 3195.66 253.72V413.72C3195.66 424.813 3197.15 432.173 3200.14 435.8C3203.34 439.427 3209.85 441.24 3219.66 441.24C3241.21 441.24 3257.95 437.08 3269.9 428.76C3281.85 420.227 3290.27 407.853 3295.18 391.64C3300.09 375.427 3302.54 355.693 3302.54 332.44C3302.54 308.547 3299.87 288.813 3294.54 273.24C3289.21 257.453 3280.46 245.72 3268.3 238.04C3256.35 230.147 3240.03 226.2 3219.34 226.2ZM3541.84 219.16L3619.92 420.12C3622.9 428.013 3626.32 433.347 3630.16 436.12C3634.21 438.893 3637.94 440.387 3641.36 440.6V447C3636.24 446.573 3630.16 446.36 3623.12 446.36C3616.29 446.147 3609.36 446.04 3602.32 446.04C3593.36 446.04 3585.04 446.147 3577.36 446.36C3569.68 446.36 3563.49 446.573 3558.8 447V440.6C3569.68 440.173 3576.5 438.36 3579.28 435.16C3582.26 431.747 3581.62 424.6 3577.36 413.72L3519.76 258.2L3524.88 252.44L3471.76 391.32C3467.92 400.92 3465.57 408.92 3464.72 415.32C3464.08 421.72 3464.61 426.733 3466.32 430.36C3468.24 433.987 3471.44 436.547 3475.92 438.04C3480.4 439.533 3485.94 440.387 3492.56 440.6V447C3486.16 446.573 3479.65 446.36 3473.04 446.36C3466.64 446.147 3460.56 446.04 3454.8 446.04C3449.68 446.04 3445.09 446.147 3441.04 446.36C3437.2 446.36 3433.68 446.573 3430.48 447V440.6C3434.96 439.533 3439.44 436.867 3443.92 432.6C3448.4 428.333 3452.66 421.08 3456.72 410.84L3530.96 219.16C3532.66 219.16 3534.48 219.16 3536.4 219.16C3538.32 219.16 3540.13 219.16 3541.84 219.16ZM3575.44 354.84V361.24H3480.08L3483.28 354.84H3575.44ZM3896.99 220.44V226.84C3892.72 227.907 3888.35 230.893 3883.87 235.8C3879.6 240.493 3874.8 247.96 3869.47 258.2L3806.43 383.32H3797.79L3722.91 245.08C3718.64 237.4 3715.01 232.493 3712.03 230.36C3709.25 228.227 3706.69 227.16 3704.34 227.16V220.44C3709.04 220.653 3713.95 220.867 3719.07 221.08C3724.19 221.293 3729.73 221.4 3735.71 221.4C3743.39 221.4 3751.71 221.4 3760.67 221.4C3769.63 221.187 3777.95 220.867 3785.62 220.44V227.16C3780.29 227.16 3775.49 227.693 3771.23 228.76C3767.17 229.827 3764.4 231.96 3762.91 235.16C3761.63 238.147 3762.48 242.52 3765.47 248.28L3818.27 349.72L3813.15 355.16L3852.51 276.76C3859.12 263.747 3862.43 253.72 3862.43 246.68C3862.64 239.427 3860.29 234.413 3855.39 231.64C3850.69 228.653 3843.87 227.053 3834.91 226.84V220.44C3841.52 220.653 3848.03 220.867 3854.43 221.08C3860.83 221.293 3866.91 221.4 3872.67 221.4C3878 221.4 3882.59 221.293 3886.42 221.08C3890.27 220.867 3893.79 220.653 3896.99 220.44ZM3823.39 343.96V413.08C3823.39 420.76 3824.03 426.52 3825.31 430.36C3826.59 434.2 3829.04 436.76 3832.67 438.04C3836.29 439.32 3841.63 440.173 3848.67 440.6V447C3843.55 446.573 3837.04 446.36 3829.15 446.36C3821.25 446.147 3813.25 446.04 3805.15 446.04C3796.4 446.04 3788.08 446.147 3780.19 446.36C3772.29 446.36 3766 446.573 3761.31 447V440.6C3768.56 440.173 3774 439.32 3777.63 438.04C3781.25 436.76 3783.6 434.2 3784.67 430.36C3785.95 426.52 3786.59 420.76 3786.59 413.08V347.48L3807.39 367.32L3823.39 343.96Z" fill="#DFE2F0"/>
<path d="M2363.97 447V398.04H2416.13V447H2363.97Z" fill="#6EA5F8"/>
<defs>
<linearGradient id="paint0_linear_48_24" x1="360" y1="529" x2="361.689" y2="402.185" gradientUnits="userSpaceOnUse">
<stop stop-color="#020202"/>
<stop offset="0.423077"/>
<stop offset="1" stop-color="#9790F5"/>
</linearGradient>
</defs>
</svg>
