<svg width="48" height="48" viewBox="0 0 48 48" fill="none" xmlns="http://www.w3.org/2000/svg">
<path d="M40.266 39.6956L28.5285 21.2494L40.1104 8.50875C40.3723 8.21348 40.5073 7.82687 40.4861 7.43273C40.4649 7.03859 40.2892 6.66869 39.9971 6.40323C39.705 6.13777 39.32 5.99814 38.9257 6.01462C38.5313 6.03109 38.1593 6.20235 37.8904 6.49125L26.8579 18.6262L19.266 6.69563C19.1306 6.48254 18.9437 6.30707 18.7224 6.18547C18.5012 6.06387 18.2528 6.00008 18.0004 6H9.00038C8.73143 5.99987 8.46739 6.07205 8.23592 6.20899C8.00444 6.34592 7.81404 6.54258 7.68465 6.77835C7.55526 7.01413 7.49164 7.28036 7.50045 7.54916C7.50927 7.81797 7.59019 8.07946 7.73475 8.30625L19.4723 26.7506L7.89038 39.5006C7.75513 39.6459 7.65006 39.8166 7.58126 40.0028C7.51246 40.189 7.4813 40.387 7.48959 40.5853C7.49787 40.7836 7.54544 40.9783 7.62953 41.1581C7.71362 41.3379 7.83256 41.4993 7.97946 41.6328C8.12636 41.7663 8.29829 41.8693 8.48529 41.9358C8.6723 42.0024 8.87065 42.0312 9.06886 42.0205C9.26707 42.0099 9.46119 41.96 9.63998 41.8737C9.81876 41.7875 9.97865 41.6666 10.1104 41.5181L21.1429 29.3831L28.7348 41.3137C28.8712 41.5251 29.0587 41.6987 29.2799 41.8186C29.501 41.9386 29.7488 42.0009 30.0004 42H39.0004C39.269 41.9999 39.5327 41.9277 39.7639 41.7908C39.9951 41.654 40.1853 41.4576 40.3147 41.2221C40.444 40.9866 40.5077 40.7207 40.4992 40.4522C40.4906 40.1837 40.4101 39.9224 40.266 39.6956ZM30.8235 39L11.7323 9H17.1698L36.2685 39H30.8235Z" fill="white"/>
</svg>
